<svg xmlns="http://www.w3.org/2000/svg" width="1024" height="1024" viewBox="0 0 1024 1024" version="1.1">
	<path d="M 232 279.023 C 208.197 282.933, 187.091 291.196, 172.514 302.314 C 160.543 311.444, 160.136 312.884, 166.532 323.490 L 170.143 329.480 167.322 331.840 C 155.381 341.825, 151.730 345.299, 147.184 351 C 137.079 363.671, 130 381.159, 130 393.450 C 130 404.182, 124.797 416.412, 115.515 427.500 C 108.966 435.323, 104.332 442.531, 101.842 448.767 C 98.506 457.125, 98.686 470.901, 102.253 480.123 C 106.802 491.883, 113.059 500.436, 122.382 507.639 C 125.747 510.238, 128.698 512.519, 128.941 512.707 C 129.184 512.895, 124.459 517.875, 118.441 523.774 C 105.443 536.517, 98.535 547.012, 93.520 561.641 C 87.831 578.235, 86.766 593.585, 89.994 612.466 C 95.990 647.539, 114.482 675.847, 145 696.669 C 155.608 703.907, 173.549 711.850, 187.445 715.461 C 257.045 733.544, 331.565 693.653, 348.742 629.119 C 352.309 615.716, 352.517 596.212, 349.215 584.698 C 347.984 580.406, 346.195 575.701, 345.239 574.242 C 343.834 572.097, 343.484 569.180, 343.419 559.044 C 343.349 548.121, 342.986 545.473, 340.610 538.554 C 336.057 525.291, 328.376 516.712, 315.500 510.507 C 311.650 508.651, 305.688 506.595, 302.250 505.937 C 298.813 505.278, 296 504.564, 296 504.348 C 296 504.133, 298.195 501.154, 300.878 497.729 C 312.730 482.594, 321.731 462.588, 328.152 437.110 C 330.285 428.645, 332.870 419.822, 333.896 417.502 C 339.896 403.937, 341.297 382.519, 337.036 369.485 C 333.507 358.690, 328.280 349.518, 321.859 342.854 C 318.637 339.509, 316 336.479, 316 336.120 C 316 335.761, 318.262 329.175, 321.026 321.484 C 323.961 313.319, 325.832 306.591, 325.523 305.315 C 324.461 300.926, 310.439 291.536, 296.949 286.180 C 284.422 281.205, 270.540 278.754, 253 278.417 C 244.475 278.253, 235.025 278.526, 232 279.023 M 227.215 290.547 C 217.359 292.348, 210.113 294.516, 200.005 298.687 C 190.914 302.439, 175.304 312.045, 174.378 314.457 C 174.070 315.261, 176.061 319.650, 178.803 324.210 C 181.545 328.769, 186.597 338.125, 190.029 345 C 193.461 351.875, 196.432 357.686, 196.632 357.914 C 196.831 358.142, 201.158 356.918, 206.247 355.195 C 235.195 345.394, 262.397 343.487, 285.728 349.624 C 291.102 351.038, 296.429 352.412, 297.565 352.679 C 299.305 353.086, 300.054 352.162, 302.312 346.831 C 305.261 339.867, 315 311.213, 315 309.500 C 315 308.105, 303.622 300.632, 297.363 297.915 C 289.539 294.520, 281.096 292.027, 272.119 290.462 C 261.776 288.658, 237.302 288.704, 227.215 290.547 M 250.916 303.601 C 250.185 304.482, 249.538 307.294, 249.478 309.851 L 249.368 314.500 243.726 315.009 C 237.356 315.583, 235.682 316.718, 236.165 320.135 C 236.469 322.283, 237.097 322.546, 243 323 L 249.500 323.500 249.797 329.726 C 250.038 334.769, 250.504 336.240, 252.251 337.463 C 254.082 338.746, 254.716 338.770, 256.454 337.622 C 258.050 336.567, 258.610 334.865, 259 329.885 L 259.500 323.500 264.898 323 C 270.956 322.439, 273.329 320.337, 271.391 317.250 C 270.601 315.991, 268.709 315.416, 264.646 315.200 L 259 314.900 259 310.673 C 259 303.618, 254.308 299.514, 250.916 303.601 M 299.080 380.131 C 291.817 388.022, 281.558 394.790, 267.641 400.873 C 249.597 408.758, 223.861 415.117, 203.887 416.624 C 194.253 417.351, 194.355 417.402, 188.671 409.094 C 183.329 401.288, 172.330 398.641, 165.776 403.584 C 158.511 409.064, 155.768 421.166, 159.750 430.168 C 162.146 435.583, 166.939 441.181, 171.699 444.123 L 175.259 446.323 174.645 452.412 C 172.488 473.813, 162.909 494.867, 147.990 511 L 141.978 517.500 144.218 519 C 148.945 522.165, 162.074 533.925, 176 547.466 C 191.757 562.788, 198.798 568.884, 206.466 573.846 C 212.737 577.903, 221.071 581.864, 224.984 582.647 L 228 583.250 228 577.785 C 228 569.466, 231.450 557.632, 237.259 546.030 C 240.141 540.272, 242.632 535.263, 242.793 534.900 C 242.955 534.537, 241.022 533.930, 238.498 533.552 C 235.974 533.173, 229.317 530.575, 223.705 527.777 C 215.258 523.566, 212.078 521.273, 205.250 514.473 C 196.122 505.383, 194.784 501.967, 199.509 499.814 C 201.861 498.742, 202.499 499.163, 209.779 506.591 C 218.294 515.279, 226.573 520.294, 238.355 523.901 C 248.298 526.945, 250.268 526.700, 256.834 521.599 C 259.951 519.179, 265.795 515.557, 269.823 513.550 C 287.084 504.950, 305.458 479.199, 314.858 450.434 C 320.616 432.813, 323.435 418.432, 323.469 406.500 C 323.498 396.332, 323.278 395.046, 320.568 389.500 C 317.964 384.172, 308.080 372.871, 306.205 373.078 C 305.817 373.121, 302.611 376.295, 299.080 380.131 M 232.250 431.662 C 229.110 432.929, 232.394 439.824, 238.109 443.964 C 243.316 447.736, 251.960 449.628, 257.037 448.107 C 264.423 445.894, 268.080 440.971, 264.528 438.023 C 263.345 437.041, 262.391 437.213, 259.660 438.901 C 253.805 442.520, 246.553 441.104, 239.449 434.956 C 234.801 430.933, 234.453 430.774, 232.250 431.662 M 285.381 442.541 C 283.060 446.083, 282.094 451.952, 282.044 462.816 C 282.020 467.939, 281.540 472.992, 280.977 474.043 C 279.266 477.241, 276.231 478.338, 272.908 476.962 C 270.618 476.013, 269.679 476.022, 268.499 477.001 C 266.437 478.712, 266.607 479.697, 269.455 482.545 C 274.390 487.481, 283.539 484.407, 287.488 476.487 C 289.100 473.254, 289.478 470.457, 289.488 461.701 C 289.499 451.367, 289.586 450.929, 291.500 451.515 C 297.555 453.370, 301.526 453.159, 305 450.798 C 307.001 449.439, 308.500 447.581, 308.500 446.460 C 308.500 444.699, 307.910 444.535, 302.687 444.841 C 297.768 445.131, 296.273 444.785, 292.959 442.591 C 288.105 439.379, 287.456 439.375, 285.381 442.541 M 362.272 477.158 C 361.047 477.778, 359.809 479.026, 359.522 479.930 C 358.998 481.583, 358.636 527.364, 358.873 562.179 C 359.025 584.564, 358.963 584.426, 368.620 583.811 C 379.619 583.111, 379 585.450, 379 544.609 L 379 509.528 381.025 512.514 C 383.710 516.473, 390.977 528.033, 406.789 553.500 C 413.960 565.050, 421.219 576.413, 422.920 578.750 L 426.013 583 434.851 583 C 442.144 583, 443.979 582.680, 445.345 581.171 C 446.839 579.520, 447 574.432, 447 528.871 C 447 490.949, 446.702 478.102, 445.800 477.200 C 443.924 475.324, 429.525 475.618, 427.571 477.571 C 426.203 478.940, 426 483.627, 426 513.804 L 426 548.464 423.318 544.517 C 420.396 540.217, 399.204 506.239, 389.938 491 C 381.800 477.614, 380.531 476.590, 371.687 476.281 C 367.734 476.143, 363.497 476.538, 362.272 477.158 M 245.362 494.500 C 243.648 498.966, 249.968 502.991, 258.703 502.996 C 266.392 503.001, 270 501.513, 270 498.339 C 270 495.734, 269.807 495.677, 261.865 495.966 C 258.313 496.095, 255.098 495.585, 253.165 494.585 C 249.308 492.591, 246.108 492.556, 245.362 494.500 M 628.720 503.493 C 622.838 505.111, 617.780 508.863, 614.211 514.258 C 611.898 517.752, 611.500 519.404, 611.500 525.500 C 611.500 537.983, 616.221 542.593, 636.568 549.979 C 649.260 554.586, 652.549 557.222, 651.511 561.952 C 650.515 566.487, 645.994 568.992, 638.798 568.996 C 634.065 568.999, 631.792 568.314, 625.438 564.967 C 620.794 562.521, 617.058 561.164, 615.944 561.518 C 613.165 562.400, 607.931 572.003, 609.070 574.131 C 610.341 576.506, 619.403 581.491, 625.932 583.407 C 633.610 585.659, 645.310 585.457, 653.491 582.930 C 661.469 580.466, 668.219 574.476, 669.919 568.351 C 672.853 557.788, 669.800 547.753, 662.178 542.906 C 659.801 541.394, 652.601 538.293, 646.178 536.015 C 639.755 533.736, 633.487 530.923, 632.250 529.762 C 627.780 525.569, 630.384 520.051, 637.771 518.062 C 642.276 516.849, 651.240 518.749, 656.580 522.049 C 658.341 523.138, 660.514 523.740, 661.422 523.392 C 663.742 522.501, 669.201 514.283, 668.813 512.265 C 668.304 509.626, 661.069 505.195, 654.540 503.525 C 647.393 501.696, 635.308 501.682, 628.720 503.493 M 705.112 503.581 C 698.998 505.225, 688.366 510.604, 687.676 512.403 C 686.979 514.217, 691.611 524.458, 693.282 524.799 C 694.088 524.963, 697.617 523.615, 701.124 521.803 C 706.678 518.933, 708.473 518.508, 715.044 518.504 C 726.211 518.498, 731.335 522.674, 731.445 531.872 L 731.500 536.500 719 537.072 C 704.671 537.728, 699.417 538.950, 692.778 543.170 C 686.288 547.296, 683.831 551.624, 683.233 559.983 C 682.823 565.724, 683.111 567.503, 685.098 571.481 C 689.749 580.795, 699.179 585.576, 711.343 584.787 C 719.279 584.272, 723.200 582.621, 729.060 577.327 L 733 573.767 733 576.319 C 733 577.722, 733.461 580.083, 734.025 581.565 C 735.037 584.228, 735.139 584.254, 742.578 583.777 C 746.719 583.511, 750.565 582.835, 751.125 582.275 C 751.786 581.614, 752.011 571.469, 751.767 553.378 C 751.327 520.766, 750.890 518.728, 742.574 510.493 C 738.866 506.821, 735.996 505.002, 731.912 503.734 C 725.103 501.621, 712.664 501.550, 705.112 503.581 M 803.319 503.796 C 800.470 504.813, 796.082 507.331, 793.569 509.390 L 789 513.134 789 510.001 C 789 503.924, 787.751 503, 779.536 503 C 774.148 503, 771.717 503.426, 770.571 504.571 C 769.198 505.945, 769 510.919, 769 544.012 C 769 573.227, 769.286 582.060, 770.250 582.659 C 772.077 583.796, 785.202 583.951, 787.250 582.861 C 788.841 582.015, 789 579.789, 789 558.433 C 789 532.864, 789.439 530.307, 794.803 524.661 C 798.761 520.493, 802.265 519, 808.082 519 C 814.436 519, 819.373 521.761, 820.912 526.176 C 821.590 528.122, 822 539.240, 822 555.674 L 822 582.050 824.565 583.025 C 828.593 584.556, 839.548 584.250, 840.945 582.566 C 841.822 581.509, 842.051 573.300, 841.817 551.316 C 841.521 523.478, 841.360 521.201, 839.397 517 C 834.997 507.586, 827.472 502.860, 816 502.307 C 810.498 502.042, 807.120 502.438, 803.319 503.796 M 877.500 503.867 C 870.385 505.911, 861.350 510.645, 860.542 512.752 C 859.706 514.930, 864.572 525, 866.460 525 C 867.324 525, 870.476 523.620, 873.465 521.933 C 882.638 516.756, 895.917 516.964, 900.791 522.360 C 903.107 524.925, 905 530.227, 905 534.149 L 905 537 894.684 537 C 882.030 537, 873.919 538.405, 867.968 541.627 C 856.986 547.573, 852.463 560.792, 857.748 571.500 C 861.754 579.618, 869.129 584.096, 879.621 584.781 C 888.394 585.354, 895.040 583.370, 900.768 578.466 C 902.996 576.560, 905.084 575, 905.409 575 C 905.734 575, 906 576.485, 906 578.300 C 906 582.934, 907.546 584, 914.266 584 C 924.663 584, 924 586.033, 924 554.146 C 924 520.703, 923.531 518.246, 915.642 510.358 C 911.806 506.521, 909.120 504.807, 905.068 503.608 C 898.040 501.527, 885.222 501.648, 877.500 503.867 M 466 503.980 C 464.723 504.787, 464.500 509.216, 464.500 533.714 C 464.500 566.718, 465.143 570.647, 471.640 577.317 C 477.756 583.595, 480.228 584.489, 491.500 584.495 C 502.999 584.501, 506.527 583.238, 512.949 576.816 L 516.912 572.853 517.573 577.841 C 518.096 581.783, 518.682 582.948, 520.367 583.400 C 523.755 584.310, 533.355 584.061, 535 583.022 C 536.281 582.212, 536.542 576.603, 536.785 544.536 C 536.985 518.149, 536.736 506.374, 535.945 504.897 C 534.920 502.981, 534.121 502.828, 526.868 503.158 C 521.213 503.414, 518.643 503.949, 517.973 505.009 C 517.455 505.829, 517.024 516.889, 517.015 529.593 C 517.001 551.715, 516.904 552.867, 514.711 557.014 C 513.452 559.395, 510.735 562.708, 508.674 564.376 C 505.601 566.863, 503.806 567.481, 498.713 567.802 C 493.416 568.136, 492.077 567.860, 489.629 565.929 C 484.365 561.777, 484 559.487, 484 530.649 L 484 504.233 481.750 503.630 C 478.243 502.690, 467.667 502.925, 466 503.980 M 557 504.294 L 554.500 505.559 554.258 543.029 C 554.119 564.676, 554.407 581.112, 554.940 581.948 C 556.110 583.784, 567.419 584.590, 571.250 583.111 L 574 582.050 574.006 560.275 C 574.009 548.167, 574.477 536.823, 575.060 534.723 C 576.169 530.728, 580.892 524.663, 584.323 522.827 C 585.450 522.224, 589.776 521.454, 593.936 521.115 L 601.500 520.500 601.500 512 L 601.500 503.500 597.068 503.184 C 591.348 502.775, 585.255 505.141, 579.266 510.096 L 574.500 514.040 573.811 509.367 C 573.432 506.796, 572.532 504.319, 571.811 503.862 C 569.796 502.584, 559.805 502.875, 557 504.294 M 281.313 516.881 C 264.110 523.267, 251.746 535.160, 244.131 552.645 C 239.620 563.004, 237.726 572.117, 238.237 581 C 238.961 593.579, 244.372 601.488, 256.248 607.323 C 266.489 612.356, 277.952 613.905, 288.057 611.623 C 304.667 607.872, 319.856 595.114, 328.795 577.406 C 334.828 565.454, 335.534 549.788, 330.548 538.513 C 327.259 531.077, 318.968 523.047, 310.265 518.869 C 301.495 514.660, 289.513 513.837, 281.313 516.881 M 131.973 525.654 C 114.300 537.478, 104.104 552.852, 99.490 574.631 C 97.618 583.466, 97.589 603.674, 99.433 613.316 C 103.950 636.923, 114.225 656.255, 131.423 673.504 C 149.090 691.224, 170.560 702.506, 197.312 708.129 C 211.326 711.074, 233.201 711.048, 247.734 708.067 C 279.067 701.642, 307.211 683.920, 324.308 659.852 C 330.571 651.034, 337.352 636.493, 340.093 626 C 343.672 612.298, 342.896 588.342, 338.686 582.585 C 337.602 581.103, 336.980 581.584, 333.360 586.704 C 331.105 589.892, 327.387 594.750, 325.097 597.500 C 322.808 600.250, 320.666 603.625, 320.338 605 C 319.008 610.572, 311.103 623.999, 304.436 632.011 C 285.428 654.852, 260.279 667, 232 667 C 193.258 667, 164.230 644.078, 154.925 606.137 C 152.585 596.593, 152.847 592.501, 155.861 591.544 C 159.336 590.441, 160.860 592.001, 162.012 597.837 C 163.708 606.434, 165.900 612.743, 170.058 621 C 176.373 633.540, 175.534 633.292, 183.553 624.992 C 196.222 611.881, 212.315 601.290, 225.310 597.512 C 228.439 596.602, 231 595.474, 231 595.004 C 231 594.534, 227.287 592.957, 222.750 591.498 C 205.704 586.020, 192.540 576.675, 170 554.055 C 154.209 538.208, 146.624 531.390, 139.518 526.654 C 134.814 523.519, 135.106 523.558, 131.973 525.654 M 709.055 549.397 C 702.910 551.617, 700.063 557.867, 702.528 563.729 C 706.059 572.126, 722.842 572.110, 729.064 563.703 C 730.797 561.361, 731.541 558.820, 731.834 554.250 L 732.233 548 722.366 548.076 C 716.940 548.118, 710.950 548.712, 709.055 549.397 M 882.500 549.102 C 876.967 550.802, 874 554.505, 874 559.712 C 874 565.825, 879.707 570, 888.064 570 C 898.226 570, 905 563.074, 905 552.684 L 905 548 895.250 548.090 C 889.888 548.140, 884.150 548.595, 882.500 549.102 M 251.250 557.662 C 250.563 557.940, 250.002 559.367, 250.004 560.833 C 250.018 570.735, 265.779 577.387, 270.099 569.315 C 271.288 567.093, 271.230 566.641, 269.600 565.449 C 268.542 564.675, 266.578 564.334, 264.999 564.650 C 261.355 565.379, 258.559 563.763, 257.016 560.038 C 255.827 557.168, 254.169 556.485, 251.250 557.662 M 278.355 570.518 C 277.485 572.784, 279.857 577.677, 282.743 579.567 C 286.388 581.956, 293.049 581.658, 295.193 579.010 C 297.781 575.814, 296.469 574, 291.567 574 C 288.360 574, 286.785 573.400, 285 571.500 C 282.362 568.692, 279.233 568.230, 278.355 570.518 M 257.250 582.662 C 255.712 583.283, 255.621 587.423, 257.086 590.160 C 258.590 592.971, 266.265 596.223, 269.486 595.414 C 275.082 594.010, 275.034 588, 269.428 588 C 267.122 588, 264.998 587.059, 262.653 585 C 260.774 583.350, 259.070 582.036, 258.868 582.079 C 258.666 582.122, 257.938 582.385, 257.250 582.662 M 227.712 607.141 C 217.850 609.032, 207.077 615.124, 197.103 624.452 C 191.480 629.712, 184 638.585, 184 639.996 C 184 640.445, 186.363 642.510, 189.250 644.586 C 218.652 665.717, 260.468 661.322, 289.401 634.060 C 295.109 628.681, 304 617.649, 304 615.945 C 304 615.486, 301.519 616.207, 298.488 617.548 C 282.108 624.792, 262.602 622.240, 245.223 610.580 C 238.023 605.750, 236.517 605.454, 227.712 607.141" stroke="none" fill="#4a6657" fill-rule="evenodd"/>
</svg>